<svg width="249" height="39" viewBox="0 0 249 39" fill="none" xmlns="http://www.w3.org/2000/svg">
<path d="M5.84639 31L0.375169 14.3988H5.65881L8.72269 25.1849L8.06614 25.0598L11.5052 16.681H14.444L18.0707 25.0911L17.3516 25.1536L20.4155 14.3988H25.6991L20.0403 31H16.3511L12.7558 22.0897L13.1309 22.1523L9.53556 31H5.84639ZM35.7454 31.3126C33.9112 31.3126 32.3168 30.9479 30.962 30.2184C29.6072 29.4681 28.5546 28.4572 27.8043 27.1858C27.054 25.8935 26.6788 24.4241 26.6788 22.7775C26.6788 21.5061 26.8872 20.3389 27.3041 19.276C27.7209 18.213 28.3045 17.2959 29.0549 16.5247C29.8052 15.7327 30.691 15.1282 31.7123 14.7114C32.7545 14.2737 33.8904 14.0548 35.1201 14.0548C36.2873 14.0548 37.3503 14.2633 38.3091 14.6801C39.2887 15.097 40.1328 15.6806 40.8414 16.4309C41.5501 17.1813 42.092 18.0671 42.4672 19.0884C42.8423 20.1097 43.0091 21.2248 42.9674 22.4336L42.9361 23.778H29.7114L28.9923 20.9642H38.8718L38.3403 21.5582V20.933C38.2986 20.4119 38.1319 19.9533 37.8401 19.5573C37.5691 19.1405 37.2044 18.8174 36.7458 18.5881C36.2873 18.3589 35.7662 18.2442 35.1826 18.2442C34.3698 18.2442 33.6715 18.411 33.0879 18.7445C32.5252 19.0571 32.0979 19.5261 31.8061 20.1514C31.5143 20.7558 31.3684 21.5061 31.3684 22.4024C31.3684 23.3194 31.556 24.1219 31.9312 24.8097C32.3272 25.4767 32.8899 25.9977 33.6194 26.3729C34.3698 26.7481 35.2556 26.9357 36.2769 26.9357C36.9855 26.9357 37.6108 26.8315 38.1527 26.623C38.7155 26.4146 39.3199 26.0603 39.966 25.56L42.3109 28.874C41.6647 29.4368 40.9769 29.8953 40.2474 30.2497C39.5179 30.604 38.7676 30.8645 37.9964 31.0313C37.2461 31.2188 36.4957 31.3126 35.7454 31.3126ZM56.1276 31.3439C55.3773 31.3439 54.6582 31.2397 53.9704 31.0313C53.2826 30.8228 52.6573 30.5415 52.0946 30.1871C51.5527 29.8328 51.0941 29.4264 50.719 28.9678C50.3646 28.4884 50.1249 27.9986 49.9999 27.4984L51.0941 27.1232L50.8127 30.9687H46.1544V7.86455H51.1879V18.3693L50.1562 17.9941C50.2813 17.4522 50.5209 16.952 50.8753 16.4934C51.2296 16.0141 51.6777 15.5972 52.2196 15.2429C52.7615 14.8677 53.3556 14.5759 54.0017 14.3675C54.6478 14.1591 55.3148 14.0548 56.0026 14.0548C57.4407 14.0548 58.7121 14.43 59.8168 15.1804C60.9423 15.9099 61.8281 16.9311 62.4743 18.2442C63.1204 19.5365 63.4435 21.0163 63.4435 22.6837C63.4435 24.372 63.1204 25.8727 62.4743 27.1858C61.849 28.478 60.984 29.4993 59.8793 30.2497C58.7747 30.9792 57.5241 31.3439 56.1276 31.3439ZM54.8146 27.1232C55.5649 27.1232 56.2214 26.9357 56.7842 26.5605C57.3469 26.1853 57.7742 25.6747 58.066 25.0286C58.3787 24.3616 58.535 23.58 58.535 22.6837C58.535 21.8083 58.3787 21.0372 58.066 20.3702C57.7742 19.7032 57.3469 19.1926 56.7842 18.8383C56.2214 18.4839 55.5649 18.3068 54.8146 18.3068C54.0434 18.3068 53.3764 18.4839 52.8136 18.8383C52.2509 19.1926 51.8132 19.7032 51.5006 20.3702C51.1879 21.0372 51.0316 21.8083 51.0316 22.6837C51.0316 23.58 51.1879 24.3616 51.5006 25.0286C51.8132 25.6747 52.2509 26.1853 52.8136 26.5605C53.3764 26.9357 54.0434 27.1232 54.8146 27.1232ZM72.3913 31.3439C71.1616 31.3439 70.1091 31.0834 69.2337 30.5623C68.3791 30.0204 67.7121 29.2492 67.2328 28.2488C66.7742 27.2483 66.5449 26.0498 66.5449 24.6534V14.3988H71.5785V23.9656C71.5785 24.6325 71.6827 25.2057 71.8911 25.6851C72.0995 26.1645 72.4122 26.5397 72.829 26.8106C73.2459 27.0607 73.7461 27.1858 74.3297 27.1858C74.7674 27.1858 75.1634 27.1128 75.5178 26.9669C75.8929 26.821 76.2056 26.623 76.4557 26.3729C76.7266 26.102 76.9351 25.7997 77.081 25.4663C77.2269 25.1119 77.2998 24.7263 77.2998 24.3095V14.3988H82.3333V31H77.6124L77.3936 27.5922L78.3315 27.217C78.0814 28.0091 77.6646 28.7177 77.081 29.343C76.4974 29.9474 75.7991 30.4372 74.9863 30.8124C74.1734 31.1667 73.3084 31.3439 72.3913 31.3439ZM88.8863 38.1907L92.6693 29.2805L92.7318 31.8441L84.7282 14.3988H90.387L93.8886 22.7463C94.0762 23.1631 94.2533 23.6112 94.4201 24.0906C94.5868 24.57 94.7119 25.0286 94.7953 25.4663L94.1074 25.8727C94.2325 25.56 94.368 25.1745 94.5139 24.7159C94.6806 24.2365 94.8578 23.7259 95.0454 23.184L98.1093 14.3988H103.799L96.7336 31L93.8573 38.1907H88.8863ZM151.628 31.3126C150.023 31.3126 148.585 30.9375 147.313 30.1871C146.042 29.4368 145.031 28.4155 144.281 27.1232C143.551 25.8102 143.187 24.3303 143.187 22.6837C143.187 21.0372 143.551 19.5678 144.281 18.2755C145.031 16.9624 146.042 15.9307 147.313 15.1804C148.585 14.43 150.023 14.0548 151.628 14.0548C153.108 14.0548 154.462 14.3154 155.692 14.8364C156.943 15.3575 157.933 16.087 158.662 17.0249L155.942 20.2764C155.65 19.9429 155.307 19.6303 154.911 19.3385C154.515 19.0467 154.077 18.8174 153.597 18.6507C153.118 18.4839 152.618 18.4006 152.097 18.4006C151.305 18.4006 150.607 18.5881 150.002 18.9633C149.398 19.3176 148.929 19.8179 148.595 20.464C148.262 21.1101 148.095 21.85 148.095 22.6837C148.095 23.4758 148.262 24.1948 148.595 24.841C148.95 25.4871 149.429 25.9977 150.033 26.3729C150.638 26.7481 151.326 26.9357 152.097 26.9357C152.639 26.9357 153.139 26.8731 153.597 26.7481C154.056 26.6022 154.473 26.3938 154.848 26.1228C155.244 25.8518 155.609 25.5184 155.942 25.1223L158.631 28.4051C157.922 29.3013 156.932 30.01 155.661 30.531C154.41 31.0521 153.066 31.3126 151.628 31.3126ZM167.508 31.2814C166.111 31.2814 164.861 30.9166 163.756 30.1871C162.672 29.4368 161.807 28.4155 161.161 27.1232C160.515 25.8102 160.192 24.3303 160.192 22.6837C160.192 20.9955 160.515 19.5052 161.161 18.213C161.807 16.9207 162.693 15.9099 163.818 15.1804C164.944 14.43 166.226 14.0548 167.664 14.0548C168.456 14.0548 169.175 14.1695 169.821 14.3988C170.488 14.628 171.072 14.9511 171.572 15.3679C172.072 15.764 172.499 16.2329 172.854 16.7748C173.208 17.2959 173.469 17.8586 173.635 18.4631L172.604 18.338V14.3988H177.575V31H172.51V26.9982L173.635 26.9669C173.469 27.5505 173.198 28.1029 172.822 28.6239C172.447 29.145 171.989 29.6035 171.447 29.9995C170.905 30.3956 170.3 30.7082 169.633 30.9375C168.967 31.1667 168.258 31.2814 167.508 31.2814ZM168.883 27.0607C169.654 27.0607 170.321 26.8836 170.884 26.5292C171.447 26.1749 171.885 25.6747 172.197 25.0286C172.51 24.3616 172.666 23.58 172.666 22.6837C172.666 21.7875 172.51 21.0163 172.197 20.3702C171.885 19.7032 171.447 19.1926 170.884 18.8383C170.321 18.4631 169.654 18.2755 168.883 18.2755C168.133 18.2755 167.476 18.4631 166.914 18.8383C166.372 19.1926 165.944 19.7032 165.632 20.3702C165.319 21.0163 165.163 21.7875 165.163 22.6837C165.163 23.58 165.319 24.3616 165.632 25.0286C165.944 25.6747 166.372 26.1749 166.914 26.5292C167.476 26.8836 168.133 27.0607 168.883 27.0607ZM181.988 31V14.3988H186.741L186.959 19.8074L186.022 18.7757C186.272 17.8795 186.678 17.077 187.241 16.3684C187.824 15.6597 188.502 15.097 189.273 14.6801C190.044 14.2633 190.867 14.0548 191.743 14.0548C192.118 14.0548 192.462 14.0861 192.775 14.1486C193.108 14.2112 193.41 14.2841 193.681 14.3675L192.306 19.9012C192.076 19.7553 191.764 19.6407 191.368 19.5573C190.993 19.4531 190.596 19.401 190.18 19.401C189.721 19.401 189.294 19.4844 188.898 19.6511C188.502 19.797 188.168 20.0159 187.897 20.3077C187.626 20.5995 187.408 20.9434 187.241 21.3394C187.095 21.7354 187.022 22.1835 187.022 22.6837V31H181.988ZM201.812 31.3126C200.187 31.3126 198.748 31.0521 197.498 30.531C196.268 30.01 195.289 29.3117 194.559 28.4363L197.592 25.8102C198.238 26.4563 198.967 26.9357 199.78 27.2483C200.593 27.5401 201.364 27.686 202.094 27.686C202.386 27.686 202.646 27.6547 202.875 27.5922C203.105 27.5297 203.292 27.4463 203.438 27.3421C203.605 27.217 203.73 27.0816 203.813 26.9357C203.897 26.7689 203.938 26.5813 203.938 26.3729C203.938 25.9561 203.751 25.633 203.376 25.4037C203.188 25.2995 202.875 25.1745 202.438 25.0286C202 24.8827 201.437 24.7159 200.749 24.5283C199.77 24.2782 198.915 23.9864 198.186 23.6529C197.477 23.2986 196.893 22.8922 196.435 22.4336C196.018 21.9959 195.695 21.5165 195.466 20.9955C195.236 20.4536 195.122 19.8491 195.122 19.1822C195.122 18.411 195.299 17.7127 195.653 17.0875C196.028 16.4622 196.518 15.9203 197.123 15.4617C197.748 15.0032 198.457 14.6593 199.249 14.43C200.062 14.1799 200.895 14.0548 201.75 14.0548C202.667 14.0548 203.542 14.1591 204.376 14.3675C205.21 14.5759 205.981 14.8677 206.69 15.2429C207.419 15.6181 208.065 16.0662 208.628 16.5872L206.002 19.5261C205.627 19.1717 205.199 18.8591 204.72 18.5881C204.261 18.2963 203.782 18.0671 203.282 17.9003C202.782 17.7336 202.323 17.6502 201.906 17.6502C201.593 17.6502 201.312 17.6815 201.062 17.744C200.833 17.7857 200.635 17.8691 200.468 17.9941C200.301 18.0983 200.176 18.2338 200.093 18.4006C200.009 18.5465 199.968 18.7236 199.968 18.932C199.968 19.1405 200.02 19.3385 200.124 19.5261C200.249 19.7137 200.416 19.87 200.624 19.995C200.833 20.1201 201.166 20.266 201.625 20.4327C202.083 20.5786 202.709 20.7662 203.501 20.9955C204.48 21.2664 205.324 21.5687 206.033 21.9021C206.742 22.2356 207.304 22.6316 207.721 23.0902C208.055 23.4445 208.305 23.8614 208.472 24.3407C208.638 24.7993 208.722 25.2995 208.722 25.8414C208.722 26.9044 208.419 27.8527 207.815 28.6865C207.231 29.4993 206.419 30.1454 205.376 30.6248C204.334 31.0834 203.146 31.3126 201.812 31.3126Z" fill="#3F69DB"/>
<path d="M106.179 31V14.3988H110.931L111.088 17.7753L110.087 18.1504C110.316 17.4001 110.723 16.7227 111.306 16.1183C111.911 15.493 112.63 14.9928 113.464 14.6176C114.297 14.2424 115.173 14.0548 116.09 14.0548C117.34 14.0548 118.393 14.3154 119.247 14.8364C120.102 15.3367 120.748 16.0974 121.186 17.1187C121.624 18.1192 121.842 19.3489 121.842 20.8079V31H116.809V21.2143C116.809 20.5474 116.715 19.995 116.527 19.5573C116.34 19.1196 116.048 18.7966 115.652 18.5881C115.277 18.3589 114.808 18.2547 114.245 18.2755C113.808 18.2755 113.401 18.3485 113.026 18.4944C112.651 18.6194 112.328 18.8174 112.057 19.0884C111.786 19.3385 111.567 19.6303 111.4 19.9638C111.254 20.2972 111.181 20.662 111.181 21.058V31H108.711C108.128 31 107.628 31 107.211 31C106.794 31 106.45 31 106.179 31ZM133.934 31.3126C132.1 31.3126 130.506 30.9479 129.151 30.2184C127.796 29.4681 126.744 28.4572 125.993 27.1858C125.243 25.8935 124.868 24.4241 124.868 22.7775C124.868 21.5061 125.076 20.3389 125.493 19.276C125.91 18.213 126.493 17.2959 127.244 16.5247C127.994 15.7327 128.88 15.1282 129.901 14.7114C130.943 14.2737 132.079 14.0548 133.309 14.0548C134.476 14.0548 135.539 14.2633 136.498 14.6801C137.478 15.097 138.322 15.6806 139.03 16.4309C139.739 17.1813 140.281 18.0671 140.656 19.0884C141.031 20.1097 141.198 21.2248 141.156 22.4336L141.125 23.778H127.9L127.181 20.9642H137.061L136.529 21.5582V20.933C136.488 20.4119 136.321 19.9533 136.029 19.5573C135.758 19.1405 135.393 18.8174 134.935 18.5881C134.476 18.3589 133.955 18.2442 133.372 18.2442C132.559 18.2442 131.86 18.411 131.277 18.7445C130.714 19.0571 130.287 19.5261 129.995 20.1514C129.703 20.7558 129.557 21.5061 129.557 22.4024C129.557 23.3194 129.745 24.1219 130.12 24.8097C130.516 25.4767 131.079 25.9977 131.808 26.3729C132.559 26.7481 133.444 26.9357 134.466 26.9357C135.174 26.9357 135.8 26.8315 136.342 26.623C136.904 26.4146 137.509 26.0603 138.155 25.56L140.5 28.874C139.854 29.4368 139.166 29.8953 138.436 30.2497C137.707 30.604 136.956 30.8645 136.185 31.0313C135.435 31.2188 134.685 31.3126 133.934 31.3126Z" fill="#FF5858"/>
<path d="M212.938 31.172C212.532 31.172 212.219 31.0573 212 30.828C211.782 30.5988 211.672 30.2705 211.672 29.8432C211.672 29.4576 211.787 29.145 212.016 28.9053C212.256 28.6552 212.563 28.5301 212.938 28.5301C213.334 28.5301 213.642 28.6448 213.861 28.874C214.08 29.1033 214.189 29.4264 214.189 29.8432C214.189 30.2392 214.074 30.5623 213.845 30.8124C213.616 31.0521 213.314 31.172 212.938 31.172ZM219.567 31.1563C218.775 31.1563 218.067 30.9687 217.442 30.5936C216.816 30.2184 216.321 29.7077 215.956 29.0616C215.602 28.4155 215.425 27.6808 215.425 26.8575C215.425 26.0446 215.602 25.3151 215.956 24.669C216.321 24.0125 216.816 23.4966 217.442 23.1214C218.067 22.7463 218.775 22.5587 219.567 22.5587C220.307 22.5587 220.985 22.6942 221.6 22.9651C222.214 23.2361 222.694 23.6112 223.038 24.0906L221.818 25.56C221.673 25.362 221.49 25.1849 221.271 25.0286C221.053 24.8618 220.813 24.7315 220.552 24.6378C220.302 24.544 220.042 24.4971 219.771 24.4971C219.343 24.4971 218.963 24.6013 218.63 24.8097C218.306 25.0077 218.051 25.2839 217.864 25.6382C217.676 25.9925 217.582 26.399 217.582 26.8575C217.582 27.3056 217.676 27.7068 217.864 28.0612C218.062 28.4051 218.327 28.6865 218.661 28.9053C218.994 29.1137 219.369 29.2179 219.786 29.2179C220.057 29.2179 220.313 29.1815 220.552 29.1085C220.792 29.0251 221.016 28.9053 221.224 28.749C221.443 28.5927 221.641 28.4051 221.818 28.1862L223.022 29.6556C222.668 30.1038 222.178 30.4685 221.553 30.7499C220.927 31.0208 220.266 31.1563 219.567 31.1563ZM228.29 31.1563C227.446 31.1563 226.69 30.9739 226.023 30.6092C225.367 30.234 224.846 29.7234 224.46 29.0773C224.085 28.4311 223.897 27.6912 223.897 26.8575C223.897 26.0238 224.085 25.2891 224.46 24.6534C224.846 24.0073 225.367 23.4966 226.023 23.1214C226.69 22.7463 227.446 22.5587 228.29 22.5587C229.124 22.5587 229.869 22.7463 230.525 23.1214C231.192 23.4966 231.713 24.0073 232.089 24.6534C232.464 25.2891 232.651 26.0238 232.651 26.8575C232.651 27.6912 232.464 28.4311 232.089 29.0773C231.713 29.7234 231.192 30.234 230.525 30.6092C229.869 30.9739 229.124 31.1563 228.29 31.1563ZM228.29 29.2179C228.696 29.2179 229.061 29.1189 229.384 28.9209C229.707 28.7125 229.957 28.4311 230.135 28.0768C230.322 27.7121 230.416 27.3056 230.416 26.8575C230.416 26.399 230.322 25.9925 230.135 25.6382C229.957 25.2735 229.707 24.9921 229.384 24.7941C229.061 24.5856 228.696 24.4814 228.29 24.4814C227.873 24.4814 227.503 24.5856 227.18 24.7941C226.857 25.0025 226.602 25.2839 226.414 25.6382C226.227 25.9925 226.138 26.399 226.148 26.8575C226.138 27.3056 226.227 27.7121 226.414 28.0768C226.602 28.4311 226.857 28.7125 227.18 28.9209C227.503 29.1189 227.873 29.2179 228.29 29.2179ZM234.306 31V22.7306H236.447L236.494 24.3095L236.166 24.372C236.281 24.1011 236.432 23.8561 236.619 23.6373C236.807 23.4185 237.026 23.2309 237.276 23.0745C237.536 22.9182 237.807 22.7984 238.089 22.715C238.37 22.6212 238.652 22.5743 238.933 22.5743C239.36 22.5743 239.746 22.6421 240.09 22.7775C240.434 22.913 240.725 23.1267 240.965 23.4185C241.205 23.6998 241.392 24.075 241.528 24.544L241.184 24.5127L241.293 24.2626C241.429 24.0125 241.601 23.7884 241.809 23.5904C242.018 23.382 242.252 23.2048 242.513 23.0589C242.773 22.9026 243.044 22.7827 243.326 22.6994C243.607 22.616 243.883 22.5743 244.154 22.5743C244.8 22.5743 245.337 22.7046 245.764 22.9651C246.191 23.2152 246.509 23.5956 246.718 24.1063C246.937 24.6169 247.046 25.2422 247.046 25.9821V31H244.826V26.1384C244.826 25.7633 244.774 25.4558 244.67 25.2161C244.566 24.9764 244.415 24.7993 244.217 24.6846C244.019 24.5596 243.763 24.4971 243.451 24.4971C243.211 24.4971 242.987 24.5387 242.778 24.6221C242.58 24.6951 242.403 24.8045 242.247 24.9504C242.101 25.0859 241.986 25.2474 241.903 25.435C241.82 25.6226 241.778 25.831 241.778 26.0603V31H239.558V26.1228C239.558 25.7789 239.501 25.4871 239.386 25.2474C239.282 24.9973 239.131 24.8097 238.933 24.6846C238.735 24.5596 238.49 24.4971 238.198 24.4971C237.959 24.4971 237.734 24.5387 237.526 24.6221C237.328 24.6951 237.156 24.8045 237.01 24.9504C236.864 25.0859 236.744 25.2474 236.651 25.435C236.567 25.6226 236.526 25.8258 236.526 26.0446V31H234.306Z" fill="#FF5858"/>
</svg>
